<?xml version="1.0" standalone="no"?>
<!DOCTYPE svg PUBLIC "-//W3C//DTD SVG 20010904//EN"
 "http://www.w3.org/TR/2001/REC-SVG-20010904/DTD/svg10.dtd">
<svg version="1.0" xmlns="http://www.w3.org/2000/svg"
 width="260.000000pt" height="260.000000pt" viewBox="0 0 260.000000 260.000000"
 preserveAspectRatio="xMidYMid meet">
<metadata>
Created by potrace 1.11, written by Peter Selinger 2001-2013
</metadata>
<g transform="translate(0.000000,260.000000) scale(0.100000,-0.100000)"
fill="#000000" stroke="none">
<path d="M0 1300 l0 -1300 1300 0 1300 0 0 1300 0 1300 -1300 0 -1300 0 0
-1300z m1788 1016 c60 -41 82 -90 82 -177 0 -41 -7 -99 -15 -129 -19 -71 -82
-197 -109 -216 -25 -17 -76 -19 -76 -2 0 7 20 50 44 97 96 187 103 315 20 380
-66 52 -139 2 -209 -143 -71 -149 -108 -293 -121 -463 -5 -81 7 -237 20 -250
7 -7 33 9 202 133 134 97 153 108 180 105 19 -2 23 -38 7 -61 -8 -11 -95 -88
-194 -171 l-180 -150 7 -137 c8 -157 -6 -252 -57 -383 -62 -162 -197 -350
-301 -419 -121 -81 -277 -103 -375 -55 -71 36 -87 69 -81 171 11 187 154 397
488 716 l133 127 -7 63 c-33 311 -6 491 109 724 62 124 144 225 210 256 60 28
171 21 223 -16z"/>
<path d="M1189 1043 c-92 -86 -239 -261 -319 -381 -112 -168 -138 -292 -69
-331 130 -72 377 239 449 567 21 92 26 202 11 202 -6 0 -38 -26 -72 -57z"/>
</g>
</svg>
